<svg width="16" height="16" viewBox="0 0 16 16" fill="none" xmlns="http://www.w3.org/2000/svg">
<path fill-rule="evenodd" clip-rule="evenodd" d="M7.9996 0.392578C3.6922 0.392578 0.200001 3.88498 0.200001 8.19298C0.200001 11.6392 2.4344 14.5628 5.5342 15.5936C5.9246 15.6658 6.0666 15.4256 6.0666 15.2182C6.0666 15.0334 6.0598 14.5432 6.0564 13.8916C3.8866 14.3634 3.4288 12.8458 3.4288 12.8458C3.074 11.9448 2.5626 11.7052 2.5626 11.7052C1.8544 11.2216 2.6164 11.231 2.6164 11.231C3.3992 11.2864 3.8112 12.0346 3.8112 12.0346C4.5068 13.2266 5.637 12.8816 6.0812 12.6832C6.1518 12.1782 6.3538 11.8352 6.5764 11.6398C4.8446 11.443 3.0238 10.7738 3.0238 7.78498C3.0238 6.93318 3.3276 6.23678 3.8264 5.69138C3.7466 5.49498 3.4784 4.70198 3.903 3.62758C3.903 3.62758 4.5578 3.41798 6.0482 4.42778C6.67 4.25398 7.3374 4.16718 8.0008 4.16458C8.6632 4.16738 9.3308 4.25398 9.9534 4.42778C11.4428 3.41798 12.0966 3.62758 12.0966 3.62758C12.5222 4.70198 12.2542 5.49498 12.1742 5.69138C12.6742 6.23678 12.9758 6.93318 12.9758 7.78498C12.9758 10.7808 11.1524 11.4408 9.4148 11.6332C9.6944 11.8742 9.944 12.3512 9.944 13.079C9.944 14.1212 9.9346 14.9622 9.9346 15.218C9.9346 15.427 10.0748 15.67 10.4708 15.5926C13.5672 14.5596 15.8 11.6382 15.8 8.19298C15.8 3.88498 12.3078 0.392578 7.9996 0.392578V0.392578Z" fill="#292E49"/>
</svg>
