<svg width="25" height="29" viewBox="0 0 25 29" fill="none" xmlns="http://www.w3.org/2000/svg">
<g filter="url(#filter0_d_3_54)">
<path d="M12.25 20.1667C11.1042 20.1667 10.0311 19.9491 9.03067 19.514C8.02967 19.0783 7.15883 18.4898 6.41817 17.7485C5.67689 17.0078 5.08839 16.137 4.65267 15.136C4.21756 14.1356 4 13.0625 4 11.9167H5.83333C5.83333 13.7042 6.45606 15.2203 7.7015 16.4652C8.94633 17.7106 10.4625 18.3333 12.25 18.3333C14.0375 18.3333 15.5537 17.7106 16.7985 16.4652C18.0439 15.2203 18.6667 13.7042 18.6667 11.9167C18.6667 10.1292 18.0439 8.61268 16.7985 7.36724C15.5537 6.12241 14.0375 5.49999 12.25 5.49999H12.1125L13.5333 6.92082L12.25 8.24999L8.58333 4.58332L12.25 0.916656L13.5333 2.24582L12.1125 3.66666H12.25C13.3958 3.66666 14.4692 3.88452 15.4703 4.32024C16.4706 4.75535 17.3415 5.34324 18.0828 6.08391C18.8234 6.82518 19.4116 7.69602 19.8473 8.69641C20.2824 9.69741 20.5 10.7708 20.5 11.9167C20.5 13.0625 20.2824 14.1356 19.8473 15.136C19.4116 16.137 18.8234 17.0078 18.0828 17.7485C17.3415 18.4898 16.4706 19.0783 15.4703 19.514C14.4692 19.9491 13.3958 20.1667 12.25 20.1667Z" fill="white"/>
</g>
<defs>
<filter id="filter0_d_3_54" x="0" y="0.916656" width="24.5" height="27.25" filterUnits="userSpaceOnUse" color-interpolation-filters="sRGB">
<feFlood flood-opacity="0" result="BackgroundImageFix"/>
<feColorMatrix in="SourceAlpha" type="matrix" values="0 0 0 0 0 0 0 0 0 0 0 0 0 0 0 0 0 0 127 0" result="hardAlpha"/>
<feOffset dy="4"/>
<feGaussianBlur stdDeviation="2"/>
<feComposite in2="hardAlpha" operator="out"/>
<feColorMatrix type="matrix" values="0 0 0 0 0 0 0 0 0 0 0 0 0 0 0 0 0 0 0.25 0"/>
<feBlend mode="normal" in2="BackgroundImageFix" result="effect1_dropShadow_3_54"/>
<feBlend mode="normal" in="SourceGraphic" in2="effect1_dropShadow_3_54" result="shape"/>
</filter>
</defs>
</svg>
