<svg width="20" height="19" viewBox="0 0 20 19" fill="none" xmlns="http://www.w3.org/2000/svg">
<g filter="url(#filter0_d_3_28)">
<path d="M6.50001 0.666687H13.5C16.1667 0.666687 18.3333 2.83335 18.3333 5.50002V12.5C18.3333 13.7819 17.8241 15.0113 16.9177 15.9177C16.0113 16.8241 14.7819 17.3334 13.5 17.3334H6.50001C3.83334 17.3334 1.66667 15.1667 1.66667 12.5V5.50002C1.66667 4.21814 2.1759 2.98876 3.08232 2.08234C3.98875 1.17591 5.21813 0.666687 6.50001 0.666687V0.666687ZM6.33334 2.33335C5.53769 2.33335 4.77463 2.64942 4.21202 3.21203C3.64941 3.77464 3.33334 4.5377 3.33334 5.33335V12.6667C3.33334 14.325 4.67501 15.6667 6.33334 15.6667H13.6667C14.4623 15.6667 15.2254 15.3506 15.788 14.788C16.3506 14.2254 16.6667 13.4623 16.6667 12.6667V5.33335C16.6667 3.67502 15.325 2.33335 13.6667 2.33335H6.33334ZM14.375 3.58335C14.6513 3.58335 14.9162 3.6931 15.1116 3.88845C15.3069 4.0838 15.4167 4.34875 15.4167 4.62502C15.4167 4.90129 15.3069 5.16624 15.1116 5.36159C14.9162 5.55694 14.6513 5.66669 14.375 5.66669C14.0987 5.66669 13.8338 5.55694 13.6384 5.36159C13.4431 5.16624 13.3333 4.90129 13.3333 4.62502C13.3333 4.34875 13.4431 4.0838 13.6384 3.88845C13.8338 3.6931 14.0987 3.58335 14.375 3.58335ZM10 4.83335C11.1051 4.83335 12.1649 5.27234 12.9463 6.05374C13.7277 6.83514 14.1667 7.89495 14.1667 9.00002C14.1667 10.1051 13.7277 11.1649 12.9463 11.9463C12.1649 12.7277 11.1051 13.1667 10 13.1667C8.89494 13.1667 7.83513 12.7277 7.05373 11.9463C6.27233 11.1649 5.83334 10.1051 5.83334 9.00002C5.83334 7.89495 6.27233 6.83514 7.05373 6.05374C7.83513 5.27234 8.89494 4.83335 10 4.83335V4.83335ZM10 6.50002C9.33696 6.50002 8.70108 6.76341 8.23224 7.23225C7.7634 7.70109 7.50001 8.33698 7.50001 9.00002C7.50001 9.66306 7.7634 10.2989 8.23224 10.7678C8.70108 11.2366 9.33696 11.5 10 11.5C10.663 11.5 11.2989 11.2366 11.7678 10.7678C12.2366 10.2989 12.5 9.66306 12.5 9.00002C12.5 8.33698 12.2366 7.70109 11.7678 7.23225C11.2989 6.76341 10.663 6.50002 10 6.50002Z" fill="#292E49"/>
</g>
<defs>
<filter id="filter0_d_3_28" x="-2.33333" y="0.666687" width="24.6667" height="24.6667" filterUnits="userSpaceOnUse" color-interpolation-filters="sRGB">
<feFlood flood-opacity="0" result="BackgroundImageFix"/>
<feColorMatrix in="SourceAlpha" type="matrix" values="0 0 0 0 0 0 0 0 0 0 0 0 0 0 0 0 0 0 127 0" result="hardAlpha"/>
<feOffset dy="4"/>
<feGaussianBlur stdDeviation="2"/>
<feComposite in2="hardAlpha" operator="out"/>
<feColorMatrix type="matrix" values="0 0 0 0 0 0 0 0 0 0 0 0 0 0 0 0 0 0 0.25 0"/>
<feBlend mode="normal" in2="BackgroundImageFix" result="effect1_dropShadow_3_28"/>
<feBlend mode="normal" in="SourceGraphic" in2="effect1_dropShadow_3_28" result="shape"/>
</filter>
</defs>
</svg>
