<svg width="16" height="14" viewBox="0 0 16 14" fill="none" xmlns="http://www.w3.org/2000/svg">
<path d="M13.7417 2.84333C14.415 2.43 14.8608 1.86583 15.0792 1.14833C14.4642 1.48092 13.8043 1.7226 13.12 1.86583C12.5342 1.23583 11.7925 0.915833 10.9033 0.915833C10.0342 0.915833 9.3 1.22083 8.70083 1.81417C8.41148 2.09592 8.18271 2.43379 8.02852 2.80707C7.87434 3.18035 7.79799 3.58118 7.80417 3.985C7.80417 4.2425 7.83667 4.4725 7.90167 4.6675C5.33833 4.58 3.21667 3.51667 1.545 1.47C1.26167 1.97083 1.12 2.48083 1.12 3.00833C1.12 4.0925 1.5775 4.95167 2.49084 5.5825C1.97 5.53833 1.51084 5.40667 1.12 5.19083C1.12 5.965 1.3475 6.61167 1.80334 7.18083C2.24613 7.73545 2.87015 8.11635 3.56584 8.25667C3.30584 8.32333 3.03167 8.355 2.75 8.355C2.49 8.355 2.30583 8.33333 2.19667 8.28583C2.38833 8.91667 2.75 9.42833 3.2725 9.82C3.78903 10.2122 4.41735 10.4291 5.06584 10.4392C3.95584 11.31 2.68667 11.7408 1.25084 11.7408C0.899168 11.7408 0.650002 11.7358 0.499168 11.7092C1.91334 12.6275 3.4875 13.0833 5.22917 13.0833C7.01167 13.0833 8.58667 12.6317 9.9575 11.7283C11.3283 10.83 12.34 9.72167 12.99 8.41667C13.6328 7.15393 13.9675 5.75693 13.9667 4.34V3.95C14.5658 3.50827 15.0845 2.96676 15.5 2.34917C14.9388 2.59238 14.3474 2.75861 13.7417 2.84333V2.84333Z" fill="#292E49"/>
</svg>
