<svg width="34" height="34" viewBox="0 0 34 34" fill="none" xmlns="http://www.w3.org/2000/svg">
<path d="M30.5901 10.2043C30.4287 9.60557 30.1134 9.05959 29.6754 8.62066C29.2375 8.18172 28.6922 7.86514 28.0939 7.70242C25.8754 7.09326 17 7.08334 17 7.08334C17 7.08334 8.12599 7.07342 5.90608 7.65567C5.30814 7.82588 4.76399 8.14694 4.32588 8.58803C3.88777 9.02912 3.5704 9.57543 3.40424 10.1745C2.81916 12.393 2.81349 16.9943 2.81349 16.9943C2.81349 16.9943 2.80783 21.6183 3.38866 23.8142C3.71449 25.0283 4.67074 25.9873 5.88624 26.3146C8.12741 26.9238 16.9787 26.9337 16.9787 26.9337C16.9787 26.9337 25.8542 26.9436 28.0727 26.3628C28.6712 26.2003 29.217 25.8845 29.656 25.4464C30.095 25.0084 30.4121 24.4633 30.5759 23.8652C31.1624 21.6481 31.1667 17.0482 31.1667 17.0482C31.1667 17.0482 31.195 12.4228 30.5901 10.2043ZM14.161 21.2571L14.1681 12.7571L21.5447 17.0142L14.161 21.2571Z" fill="white"/>
</svg>
